<svg height="100" id="Layer_1" style="transform-origin: 50px 50px 0px;" version="1.1" viewBox="0 0 100 100" width="100" x="0px" xml:space="preserve" xmlns="http://www.w3.org/2000/svg" xmlns:xlink="http://www.w3.org/1999/xlink" y="0px">
  <g style="transform-origin: 50px 50px 0px;">
    <g fill="#008bff" style="fill: rgb(0, 139, 255); transform-origin: 50px 50px 0px; transform: scale(1.2);">
      <g style="transform-origin: 50px 50px 0px;">
        <g fill="#008bff" style="fill: rgb(0, 139, 255);">
          <style class="ld ld-fade" style="transform-origin: 50px 50px 0px; animation-duration: 1s; animation-delay: -1s; animation-direction: normal;" type="text/css">.st0{fill:#F4E6C8;} .st1{opacity:0.8;fill:#849B87;} .st2{fill:#D65A62;} .st3{fill:#E15C64;} .st4{fill:#F47E5F;} .st5{fill:#F7B26A;} .st6{fill:#FEE8A2;} .st7{fill:#ACBD81;} .st8{fill:#F5E169;} .st9{fill:#F0AF6B;} .st10{fill:#EA7C60;} .st11{fill:#A8B980;} .st12{fill:#829985;} .st13{fill:#798AAE;} .st14{fill:#8672A7;} .st15{fill:#CC5960;} .st16{fill:#E17A5F;} .st17{fill:#849B87;} .st18{opacity:0.8;fill:#E15C64;} .st19{opacity:0.8;fill:#F7B26A;} .st20{fill:#79A5B5;} .st21{opacity:0.8;fill:#79A5B4;} .st22{fill:#666766;}</style>
          <g class="ld ld-fade" style="transform-origin: 50px 50px 0px; animation-duration: 1s; animation-delay: -0.947368s; animation-direction: normal;">
            <path class="st2" d="M20.9,31.8L20.9,31.8c-6,0-10.9-4.9-10.9-10.9v0c0-6,4.9-10.9,10.9-10.9h0c6,0,10.9,4.9,10.9,10.9v0 C31.8,26.9,26.9,31.8,20.9,31.8z" fill="#008bff" style="fill: rgb(0, 139, 255);"/>
          </g>
          <g class="ld ld-fade" style="transform-origin: 50px 50px 0px; animation-duration: 1s; animation-delay: -0.894737s; animation-direction: normal;">
            <path class="st9" d="M50,31.8L50,31.8c-6,0-10.9-4.9-10.9-10.9v0C39.1,14.9,44,10,50,10h0c6,0,10.9,4.9,10.9,10.9v0 C60.9,26.9,56,31.8,50,31.8z" fill="#008bff" style="fill: rgb(0, 139, 255);"/>
          </g>
          <g class="ld ld-fade" style="transform-origin: 50px 50px 0px; animation-duration: 1s; animation-delay: -0.842105s; animation-direction: normal;">
            <path class="st4" d="M79.1,31.8L79.1,31.8c-6,0-10.9-4.9-10.9-10.9v0c0-6,4.9-10.9,10.9-10.9h0c6,0,10.9,4.9,10.9,10.9v0 C90,26.9,85.1,31.8,79.1,31.8z" fill="#008bff" stroke="#008bff" style="fill: rgb(0, 139, 255); stroke: rgb(0, 139, 255);"/>
          </g>
          <g class="ld ld-fade" style="transform-origin: 50px 50px 0px; animation-duration: 1s; animation-delay: -0.789474s; animation-direction: normal;">
            <path class="st9" d="M20.9,60.9L20.9,60.9C14.9,60.9,10,56,10,50v0c0-6,4.9-10.9,10.9-10.9h0c6,0,10.9,4.9,10.9,10.9v0 C31.8,56,26.9,60.9,20.9,60.9z" fill="#008bff" style="fill: rgb(0, 139, 255);"/>
          </g>
          <g class="ld ld-fade" style="transform-origin: 50px 50px 0px; animation-duration: 1s; animation-delay: -0.736842s; animation-direction: normal;">
            <path class="st4" d="M49.9,60.9L49.9,60.9C43.9,60.9,39,56,39,50v0c0-6,4.9-10.9,10.9-10.9h0c6,0,10.9,4.9,10.9,10.9v0 C60.8,56,55.9,60.9,49.9,60.9z" fill="#008bff" stroke="#008bff" style="fill: rgb(0, 139, 255); stroke: rgb(0, 139, 255);"/>
          </g>
          <g class="ld ld-fade" style="transform-origin: 50px 50px 0px; animation-duration: 1s; animation-delay: -0.684211s; animation-direction: normal;">
            <path class="st3" d="M79.1,60.9L79.1,60.9c-6,0-10.9-4.9-10.9-10.9v0c0-6,4.9-10.9,10.9-10.9h0C85.1,39.1,90,44,90,50v0 C90,56,85.1,60.9,79.1,60.9z" fill="#008bff" style="fill: rgb(0, 139, 255);"/>
          </g>
          <g class="ld ld-fade" style="transform-origin: 50px 50px 0px; animation-duration: 1s; animation-delay: -0.631579s; animation-direction: normal;">
            <path class="st4" d="M20.9,90L20.9,90c-6,0-10.9-4.9-10.9-10.9v0c0-6,4.9-10.9,10.9-10.9h0c6,0,10.9,4.9,10.9,10.9v0 C31.8,85.1,26.9,90,20.9,90z" fill="#008bff" stroke="#008bff" style="fill: rgb(0, 139, 255); stroke: rgb(0, 139, 255);"/>
          </g>
          <g class="ld ld-fade" style="transform-origin: 50px 50px 0px; animation-duration: 1s; animation-delay: -0.578947s; animation-direction: normal;">
            <path class="st3" d="M50,90L50,90c-6,0-10.9-4.9-10.9-10.9v0c0-6,4.9-10.9,10.9-10.9h0c6,0,10.9,4.9,10.9,10.9v0 C60.9,85.1,56,90,50,90z" fill="#008bff" style="fill: rgb(0, 139, 255);"/>
          </g>
          <g class="ld ld-fade" style="transform-origin: 50px 50px 0px; animation-duration: 1s; animation-delay: -0.526316s; animation-direction: normal;">
            <path class="st5" d="M79.1,90L79.1,90c-6,0-10.9-4.9-10.9-10.9v0c0-6,4.9-10.9,10.9-10.9h0c6,0,10.9,4.9,10.9,10.9v0 C90,85.1,85.1,90,79.1,90z" fill="#008bff" style="fill: rgb(0, 139, 255);"/>
          </g>
          <metadata class="ld ld-fade" style="transform-origin: 50px 50px 0px; animation-duration: 1s; animation-delay: -0.473684s; animation-direction: normal;" xmlns:d="https://loading.io/stock/">
            <d:name class="ld ld-fade" style="transform-origin: 50px 50px 0px; animation-duration: 1s; animation-delay: -0.421053s; animation-direction: normal;">cell</d:name>
            <d:tags class="ld ld-fade" style="transform-origin: 50px 50px 0px; animation-duration: 1s; animation-delay: -0.368421s; animation-direction: normal;">grid,circle,ball,bingo,frame,cell,spinner</d:tags>
            <d:license class="ld ld-fade" style="transform-origin: 50px 50px 0px; animation-duration: 1s; animation-delay: -0.315789s; animation-direction: normal;">cc0</d:license>
            <d:slug class="ld ld-fade" style="transform-origin: 50px 50px 0px; animation-duration: 1s; animation-delay: -0.263158s; animation-direction: normal;">lax18c</d:slug>
          </metadata>
        </g>
      </g>
    </g>
  </g>
  <style class="ld ld-fade" style="transform-origin: 50px 50px 0px; animation-duration: 1s; animation-delay: -0.210526s; animation-direction: normal;" type="text/css">path,ellipse,circle,rect,polygon,polyline,line { stroke-width: 0; }@keyframes ld-fade {
  0% {
    opacity: 1;
  }
  100% {
    opacity: 0;
  }
}
@-webkit-keyframes ld-fade {
  0% {
    opacity: 1;
  }
  100% {
    opacity: 0;
  }
}
.ld.ld-fade {
  -webkit-animation: ld-fade 1s infinite linear;
  animation: ld-fade 1s infinite linear;
}
</style>
</svg>