<?xml version="1.0" standalone="no"?>
<!DOCTYPE svg PUBLIC "-//W3C//DTD SVG 20010904//EN"
 "http://www.w3.org/TR/2001/REC-SVG-20010904/DTD/svg10.dtd">
<svg version="1.0" xmlns="http://www.w3.org/2000/svg"
 width="700.000000pt" height="700.000000pt" viewBox="0 0 700.000000 700.000000"
 preserveAspectRatio="xMidYMid meet">
<metadata>
Created by potrace 1.11, written by Peter Selinger 2001-2013
</metadata>
<g transform="translate(0.000000,700.000000) scale(0.100000,-0.100000)"
fill="#000000" stroke="none">
<path d="M34 6966 l-34 -34 0 -3313 0 -3314 2130 2130 2130 2130 -1189 5
-1189 5 -44 30 c-78 55 -111 168 -72 251 26 54 85 100 143 113 71 15 2849 16
2919 0 59 -12 124 -63 152 -120 20 -37 20 -66 20 -1506 0 -1403 -1 -1470 -19
-1508 -65 -144 -275 -152 -356 -15 -20 35 -20 48 -25 1268 l-5 1232 -2160
-2160 -2160 -2160 3329 0 3328 0 34 34 34 34 0 3432 0 3432 -34 34 -34 34
-3432 0 -3432 0 -34 -34z"/>
</g>
</svg>
